<?xml version="1.0" encoding="UTF-8"?>
<svg id="Camada_1" xmlns="http://www.w3.org/2000/svg" version="1.1" viewBox="0 0 16 16">
  <!-- Generator: Adobe Illustrator 29.8.1, SVG Export Plug-In . SVG Version: 2.1.1 Build 2)  -->
  <polygon points="0 13.5 0 2.07 6.81 2.07 6.53 4 2.7 4 2.7 7.03 6.04 7.03 6.04 8.96 2.7 8.96 2.7 13.5 0 13.5"/>
  <path d="M14.29,2.1c.55.21,1.08.52,1.58.94l-1.29,1.53c-.34-.26-.68-.46-1.01-.59-.33-.13-.68-.2-1.05-.2-.77,0-1.38.32-1.82.97-.45.65-.67,1.65-.67,3s.22,2.32.67,2.96c.45.64,1.06.97,1.86.97.42,0,.8-.08,1.14-.24.34-.16.71-.39,1.11-.68l1.2,1.55c-.43.43-.95.78-1.56,1.06-.61.28-1.29.41-2.02.41-1.06,0-1.97-.23-2.76-.69s-1.39-1.15-1.82-2.05c-.43-.91-.65-2-.65-3.27s.22-2.32.67-3.22,1.06-1.59,1.85-2.05c.79-.47,1.68-.7,2.68-.7.71,0,1.35.1,1.9.31Z"/>
</svg>