<?xml version="1.0" encoding="UTF-8"?>
<svg id="Camada_1" xmlns="http://www.w3.org/2000/svg" version="1.1" xmlns:xlink="http://www.w3.org/1999/xlink" viewBox="0 0 24 24">
  <!-- Generator: Adobe Illustrator 29.8.1, SVG Export Plug-In . SVG Version: 2.1.1 Build 2)  -->
  <defs>
    <style>
      .st0 {
        fill: url(#Gradiente_sem_nome_22);
      }

      .st1 {
        fill: url(#Gradiente_sem_nome_221);
      }

      .st2 {
        fill: url(#Gradiente_sem_nome_222);
      }

      .st3 {
        fill: url(#Gradiente_sem_nome_8);
      }
    </style>
    <linearGradient id="Gradiente_sem_nome_8" data-name="Gradiente sem nome 8" x1="1" y1="12.82" x2="22.99" y2="12.82" gradientUnits="userSpaceOnUse">
      <stop offset="0" stop-color="#f93535"/>
      <stop offset="1" stop-color="#ff8aa6"/>
    </linearGradient>
    <linearGradient id="Gradiente_sem_nome_22" data-name="Gradiente sem nome 22" x1="13.23" y1="10.01" x2="19.78" y2="10.01" gradientUnits="userSpaceOnUse">
      <stop offset="0" stop-color="#f93535"/>
      <stop offset="1" stop-color="#ff8aa6"/>
    </linearGradient>
    <linearGradient id="Gradiente_sem_nome_221" data-name="Gradiente sem nome 22" y1="12.67" y2="12.67" xlink:href="#Gradiente_sem_nome_22"/>
    <linearGradient id="Gradiente_sem_nome_222" data-name="Gradiente sem nome 22" y1="15.33" y2="15.33" xlink:href="#Gradiente_sem_nome_22"/>
  </defs>
  <path class="st3" d="M17.5,4.5c-1.95,0-4.05.4-5.5,1.5-1.45-1.1-3.55-1.5-5.5-1.5-1.45,0-2.99.22-4.28.79-.73.33-1.22,1.04-1.22,1.85v11.28c0,1.3,1.22,2.26,2.48,1.94.98-.25,2.02-.36,3.02-.36,1.56,0,3.22.26,4.56.92.6.3,1.28.3,1.87,0,1.34-.67,3-.92,4.56-.92,1,0,2.04.11,3.02.36,1.26.33,2.48-.63,2.48-1.94V7.14c0-.81-.49-1.52-1.22-1.85-1.28-.57-2.82-.79-4.27-.79ZM21,17.23c0,.63-.58,1.09-1.2.98-.75-.14-1.53-.2-2.3-.2-1.7,0-4.15.65-5.5,1.5V8c1.35-.85,3.8-1.5,5.5-1.5.92,0,1.83.09,2.7.28.46.1.8.51.8.98v9.47Z"/>
  <path class="st0" d="M13.98,11.01c-.32,0-.61-.2-.71-.52-.13-.39.09-.82.48-.94,1.54-.5,3.53-.66,5.36-.45.41.05.71.42.66.83s-.42.71-.83.66c-1.62-.19-3.39-.04-4.73.39-.08.01-.16.03-.23.03Z"/>
  <path class="st1" d="M13.98,13.67c-.32,0-.61-.2-.71-.52-.13-.39.09-.82.48-.94,1.53-.5,3.53-.66,5.36-.45.41.05.71.42.66.83s-.42.71-.83.66c-1.62-.19-3.39-.04-4.73.39-.08.02-.16.03-.23.03Z"/>
  <path class="st2" d="M13.98,16.33c-.32,0-.61-.2-.71-.52-.13-.39.09-.82.48-.94,1.53-.5,3.53-.66,5.36-.45.41.05.71.42.66.83s-.42.7-.83.66c-1.62-.19-3.39-.04-4.73.39-.08.02-.16.03-.23.03Z"/>
</svg>