<?xml version="1.0" encoding="UTF-8"?>
<svg id="Camada_1" xmlns="http://www.w3.org/2000/svg" version="1.1" viewBox="0 0 104 38">
  <!-- Generator: Adobe Illustrator 29.8.1, SVG Export Plug-In . SVG Version: 2.1.1 Build 2)  -->
  <defs>
    <style>
      .st0 {
        isolation: isolate;
      }
    </style>
  </defs>
  <g class="st0">
    <g class="st0">
      <path d="M1.09,25.9v-11.62h6.93l-.28,1.96h-3.89v3.09h3.39v1.96h-3.39v4.61H1.09Z"/>
      <path d="M16.33,22.23h-5.52c.09.75.3,1.27.64,1.58.33.3.8.45,1.39.45.36,0,.7-.06,1.04-.19.33-.13.7-.33,1.09-.6l1.09,1.48c-1.04.83-2.2,1.24-3.47,1.24-1.44,0-2.55-.42-3.32-1.27s-1.16-1.99-1.16-3.42c0-.91.16-1.72.49-2.44.32-.72.8-1.29,1.42-1.71s1.38-.63,2.25-.63c1.29,0,2.29.4,3.02,1.21.73.8,1.09,1.92,1.09,3.35,0,.37-.02.69-.05.96ZM13.79,20.52c-.02-1.36-.5-2.05-1.44-2.05-.46,0-.81.17-1.06.5-.25.34-.41.89-.46,1.66h2.97v-.12Z"/>
      <path d="M18.44,25.52c-.43-.44-.65-1.07-.65-1.89v-10.18l2.65-.29v10.36c0,.37.15.55.45.55.16,0,.3-.03.44-.08l.52,1.88c-.48.2-1.02.3-1.61.3-.77,0-1.37-.22-1.8-.66Z"/>
      <path d="M25.3,12.73c.3.29.44.65.44,1.08s-.15.8-.44,1.08c-.3.28-.67.43-1.13.43s-.83-.14-1.12-.43c-.29-.29-.44-.65-.44-1.08s.15-.8.44-1.08c.29-.29.67-.43,1.12-.43s.84.14,1.13.43ZM25.51,17v8.91h-2.65v-8.91h2.65Z"/>
      <path d="M35.12,17.95c.55.83.82,1.99.82,3.47,0,.92-.14,1.74-.43,2.46-.29.72-.7,1.29-1.23,1.69-.54.41-1.16.61-1.88.61-.89,0-1.62-.31-2.16-.92v4.08l-2.65.29v-12.63h2.33l.13.99c.35-.44.74-.76,1.19-.96.45-.21.91-.31,1.38-.31,1.12,0,1.95.41,2.5,1.24ZM33.19,21.46c0-1.05-.12-1.78-.35-2.19-.24-.41-.59-.61-1.06-.61-.3,0-.58.09-.85.27-.26.18-.5.44-.7.77v3.76c.36.53.81.79,1.36.79,1.06,0,1.59-.93,1.59-2.78Z"/>
      <path d="M45.31,22.23h-5.52c.09.75.3,1.27.64,1.58.33.3.8.45,1.39.45.36,0,.7-.06,1.04-.19.33-.13.7-.33,1.09-.6l1.09,1.48c-1.04.83-2.2,1.24-3.47,1.24-1.44,0-2.55-.42-3.32-1.27s-1.16-1.99-1.16-3.42c0-.91.16-1.72.49-2.44.32-.72.8-1.29,1.42-1.71s1.38-.63,2.25-.63c1.29,0,2.29.4,3.02,1.21.73.8,1.09,1.92,1.09,3.35,0,.37-.02.69-.05.96ZM42.76,20.52c-.02-1.36-.5-2.05-1.44-2.05-.46,0-.81.17-1.06.5-.25.34-.41.89-.46,1.66h2.97v-.12Z"/>
      <path d="M57.56,14.31c.56.21,1.1.53,1.6.96l-1.31,1.56c-.35-.27-.69-.47-1.02-.6-.33-.13-.69-.2-1.07-.2-.78,0-1.4.33-1.85.99s-.68,1.68-.68,3.05.23,2.36.68,3.01c.45.65,1.08.98,1.89.98.42,0,.81-.08,1.16-.24.35-.16.72-.39,1.12-.7l1.22,1.58c-.44.44-.96.79-1.58,1.07s-1.31.42-2.05.42c-1.07,0-2.01-.23-2.8-.7-.79-.47-1.41-1.17-1.85-2.09-.44-.92-.66-2.03-.66-3.33s.23-2.35.68-3.27c.45-.92,1.08-1.61,1.88-2.09.8-.48,1.71-.71,2.73-.71.73,0,1.37.11,1.94.32Z"/>
      <path d="M67.33,17.41c.44.47.65,1.13.65,1.98v6.51h-2.65v-6.05c0-.45-.07-.76-.22-.93-.15-.17-.35-.26-.62-.26-.54,0-1.05.38-1.54,1.14v6.1h-2.65v-12.44l2.65-.27v4.76c.37-.41.76-.72,1.17-.93s.88-.31,1.39-.31c.77,0,1.38.23,1.81.7Z"/>
      <path d="M77.2,24.06c.1.16.25.27.46.35l-.55,1.73c-.55-.04-1-.17-1.34-.36s-.62-.51-.8-.93c-.58.89-1.48,1.34-2.68,1.34-.88,0-1.59-.26-2.11-.77-.53-.51-.79-1.18-.79-2.01,0-.97.36-1.72,1.07-2.23.71-.51,1.75-.77,3.1-.77h.91v-.39c0-.53-.11-.89-.34-1.08-.22-.2-.61-.29-1.17-.29-.29,0-.64.04-1.06.13-.41.08-.84.2-1.27.34l-.6-1.74c.56-.21,1.13-.37,1.72-.49.59-.11,1.13-.17,1.64-.17,1.27,0,2.21.26,2.8.79.59.53.89,1.31.89,2.37v3.45c0,.34.05.58.14.74ZM74.46,23.44v-1.58h-.65c-.6,0-1.05.11-1.35.32-.3.21-.44.54-.44.99,0,.36.09.63.28.83s.44.29.76.29c.6,0,1.07-.28,1.41-.85Z"/>
      <path d="M86.58,17l-2.8,8.91h-3.14l-2.87-8.91h2.88l1.58,6.89,1.64-6.89h2.7Z"/>
      <path d="M95.1,22.23h-5.52c.09.75.3,1.27.64,1.58.33.3.8.45,1.39.45.36,0,.7-.06,1.04-.19.33-.13.7-.33,1.09-.6l1.09,1.48c-1.04.83-2.2,1.24-3.47,1.24-1.44,0-2.55-.42-3.32-1.27s-1.16-1.99-1.16-3.42c0-.91.16-1.72.49-2.44.32-.72.8-1.29,1.42-1.71s1.38-.63,2.25-.63c1.29,0,2.29.4,3.02,1.21.73.8,1.09,1.92,1.09,3.35,0,.37-.02.69-.05.96ZM92.55,20.52c-.02-1.36-.5-2.05-1.44-2.05-.46,0-.81.17-1.06.5-.25.34-.41.89-.46,1.66h2.97v-.12Z"/>
      <path d="M101.57,17c.56.19,1.05.46,1.48.8l-.97,1.49c-.73-.46-1.46-.69-2.2-.69-.35,0-.61.06-.8.18s-.28.28-.28.5c0,.17.04.3.13.41s.25.21.51.33c.26.11.65.25,1.19.4.93.27,1.62.62,2.07,1.05.45.43.68,1.03.68,1.79,0,.6-.17,1.13-.52,1.57-.35.44-.82.78-1.43,1.01-.6.24-1.27.35-2.01.35s-1.44-.12-2.09-.35c-.64-.23-1.19-.56-1.63-.97l1.29-1.44c.75.58,1.54.87,2.37.87.4,0,.72-.07.95-.22.23-.14.34-.35.34-.62,0-.21-.04-.38-.13-.5-.09-.12-.26-.24-.52-.34s-.67-.24-1.22-.39c-.88-.26-1.54-.61-1.98-1.07-.44-.46-.65-1.03-.65-1.71,0-.51.15-.98.44-1.38.3-.41.72-.73,1.27-.97.55-.24,1.19-.36,1.92-.36.64,0,1.24.1,1.79.29Z"/>
    </g>
  </g>
</svg>